HIERARCHY
ROOT _no_name_
{
	OFFSET 0 0 0
	CHANNELS 6 Xposition Yposition Zposition Zrotation Xrotation Yrotation
	JOINT Main__Hips_
	{
		OFFSET -0.70544 0.210961 0.735131
		CHANNELS 3 Zrotation Xrotation Yrotation
		JOINT LeftUpperLeg
		{
			OFFSET 0.05 0.0939693 0.034202
			CHANNELS 3 Zrotation Xrotation Yrotation
			JOINT LeftLowerLeg
			{
				OFFSET -0.100504 -0.193113 0.360482
				CHANNELS 3 Zrotation Xrotation Yrotation
				JOINT LeftFoot
				{
					OFFSET 0.448319 0.0416229 -0.0270305
					CHANNELS 3 Zrotation Xrotation Yrotation
					JOINT LeftToes
					{
						OFFSET 0.0978653 -0.0363168 0.0789206
						CHANNELS 3 Zrotation Xrotation Yrotation
						End Site
						{
							OFFSET 0 0 0
						}
					}
				}
			}
		}
		JOINT RightUpperLeg
		{
			OFFSET 0.05 -0.0939693 -0.034202
			CHANNELS 3 Zrotation Xrotation Yrotation
			JOINT RightLowerLeg
			{
				OFFSET 0.419986 -0.0212477 0.0293518
				CHANNELS 3 Zrotation Xrotation Yrotation
				JOINT RightFoot
				{
					OFFSET -0.105716 -0.0137819 -0.438277
					CHANNELS 3 Zrotation Xrotation Yrotation
					JOINT RightToes
					{
						OFFSET 0.0520804 -0.00732905 -0.119829
						CHANNELS 3 Zrotation Xrotation Yrotation
						End Site
						{
							OFFSET 0 0 0
						}
					}
				}
			}
		}
		JOINT LowerBack
		{
			OFFSET -0.09 -1.49012e-008 0
			CHANNELS 3 Zrotation Xrotation Yrotation
			JOINT Back
			{
				OFFSET -0.137873 -0.0062921 0.0234824
				CHANNELS 3 Zrotation Xrotation Yrotation
				JOINT Chest
				{
					OFFSET -0.137888 -0.0200915 0.113944
					CHANNELS 3 Zrotation Xrotation Yrotation
					JOINT Neck
					{
						OFFSET -0.103998 0.0807539 0.165807
						CHANNELS 3 Zrotation Xrotation Yrotation
						End Site
						{
							OFFSET 0 0 0
						}
					}
					JOINT LeftUpperArm
					{
						OFFSET 0.00133169 0.22521 0.0377961
						CHANNELS 3 Zrotation Xrotation Yrotation
						JOINT LeftLowerArm
						{
							OFFSET 0.191878 -0.269659 0.0794771
							CHANNELS 3 Zrotation Xrotation Yrotation
							JOINT LeftHand
							{
								OFFSET 0.010592 -0.0342439 0.222408
								CHANNELS 3 Zrotation Xrotation Yrotation
								JOINT LTumb1
								{
									OFFSET -0.0522499 -0.00123463 0.0536096
									CHANNELS 3 Zrotation Xrotation Yrotation
									JOINT LTumb2
									{
										OFFSET -0.00924724 -0.0245445 0.029804
										CHANNELS 3 Zrotation Xrotation Yrotation
										End Site
										{
											OFFSET 0 0 0
										}
									}
								}
								JOINT LForeFinger1
								{
									OFFSET -0.0345331 -0.0230855 0.112225
									CHANNELS 3 Zrotation Xrotation Yrotation
									JOINT LForeFinger2
									{
										OFFSET -0.00897616 -0.0252004 0.0149903
										CHANNELS 3 Zrotation Xrotation Yrotation
										JOINT LForeFinger3
										{
											OFFSET -0.00184596 -0.0222116 0.0105497
											CHANNELS 3 Zrotation Xrotation Yrotation
											End Site
											{
												OFFSET 0 0 0
											}
										}
									}
								}
								JOINT LMiddleFinger1
								{
									OFFSET -0.00744128 -0.0252939 0.117335
									CHANNELS 3 Zrotation Xrotation Yrotation
									JOINT LMiddleFinger2
									{
										OFFSET -0.0119251 -0.0257949 0.0164274
										CHANNELS 3 Zrotation Xrotation Yrotation
										JOINT LMiddleFinger3
										{
											OFFSET -0.00512987 -0.0255577 0.0116551
											CHANNELS 3 Zrotation Xrotation Yrotation
											End Site
											{
												OFFSET 0 0 0
											}
										}
									}
								}
								JOINT LRingFinger1
								{
									OFFSET 0.0218328 -0.0294254 0.116861
									CHANNELS 3 Zrotation Xrotation Yrotation
									JOINT LRingFinger2
									{
										OFFSET -0.0111863 -0.0236724 0.0119445
										CHANNELS 3 Zrotation Xrotation Yrotation
										JOINT LRingFinger3
										{
											OFFSET -0.00693423 -0.0218744 0.0103359
											CHANNELS 3 Zrotation Xrotation Yrotation
											End Site
											{
												OFFSET 0 0 0
											}
										}
									}
								}
								JOINT LLittleFinger1
								{
									OFFSET 0.0483665 -0.0273308 0.105911
									CHANNELS 3 Zrotation Xrotation Yrotation
									JOINT LLittleFinger2
									{
										OFFSET -0.00524843 -0.0127647 0.0108209
										CHANNELS 3 Zrotation Xrotation Yrotation
										JOINT LLittleFinger3
										{
											OFFSET -0.00810105 -0.0212185 0.00689209
											CHANNELS 3 Zrotation Xrotation Yrotation
											End Site
											{
												OFFSET 0 0 0
											}
										}
									}
								}
								JOINT Axe
								{
									OFFSET -0.159834 -1.12238 -0.352986
									CHANNELS 3 Zrotation Xrotation Yrotation
									End Site
									{
										OFFSET 0 0 0
									}
								}
							}
						}
					}
					JOINT RightUpperArm
					{
						OFFSET -0.160985 -0.12288 0.105519
						CHANNELS 3 Zrotation Xrotation Yrotation
						JOINT RightLowerArm
						{
							OFFSET 0.339494 -0.0218849 0.0107251
							CHANNELS 3 Zrotation Xrotation Yrotation
							JOINT RightHand
							{
								OFFSET 0.225253 -0.000817902 -0.00326025
								CHANNELS 3 Zrotation Xrotation Yrotation
								JOINT RTumb1
								{
									OFFSET 0.051982 0.0041559 0.0537231
									CHANNELS 3 Zrotation Xrotation Yrotation
									JOINT RTumb2
									{
										OFFSET 0.0363757 0.0153742 0.00408185
										CHANNELS 3 Zrotation Xrotation Yrotation
										End Site
										{
											OFFSET 0 0 0
										}
									}
								}
								JOINT RForeFinger1
								{
									OFFSET 0.113836 0.00627727 0.0353073
									CHANNELS 3 Zrotation Xrotation Yrotation
									JOINT RForeFinger2
									{
										OFFSET 0.0279878 0.0124631 -0.00130308
										CHANNELS 3 Zrotation Xrotation Yrotation
										JOINT RForeFinger3
										{
											OFFSET 0.0113282 0.0218013 -0.00210536
											CHANNELS 3 Zrotation Xrotation Yrotation
											End Site
											{
												OFFSET 0 0 0
											}
										}
									}
								}
								JOINT RMiddleFinger1
								{
									OFFSET 0.119932 -0.000319172 0.00888556
									CHANNELS 3 Zrotation Xrotation Yrotation
									JOINT RMiddleFinger2
									{
										OFFSET 0.0277172 0.0175695 -0.000717044
										CHANNELS 3 Zrotation Xrotation Yrotation
										JOINT RMiddleFinger3
										{
											OFFSET 0.0110629 0.0262333 -0.00218683
											CHANNELS 3 Zrotation Xrotation Yrotation
											End Site
											{
												OFFSET 0 0 0
											}
										}
									}
								}
								JOINT RRingFinger1
								{
									OFFSET 0.120676 -0.00470713 -0.0203455
									CHANNELS 3 Zrotation Xrotation Yrotation
									JOINT RRingFinger2
									{
										OFFSET 0.0252958 0.013714 -0.000485361
										CHANNELS 3 Zrotation Xrotation Yrotation
										JOINT RRingFinger3
										{
											OFFSET 0.00675499 0.0242118 -0.00125182
											CHANNELS 3 Zrotation Xrotation Yrotation
											End Site
											{
												OFFSET 0 0 0
											}
										}
									}
								}
								JOINT RLittleFinger1
								{
									OFFSET 0.110196 -0.0118132 -0.0476922
									CHANNELS 3 Zrotation Xrotation Yrotation
									JOINT RLittleFinger2
									{
										OFFSET 0.0156376 0.00773305 0.00180066
										CHANNELS 3 Zrotation Xrotation Yrotation
										JOINT RLittleFinger3
										{
											OFFSET 0.0162803 0.0170717 0.00261974
											CHANNELS 3 Zrotation Xrotation Yrotation
											End Site
											{
												OFFSET 0 0 0
											}
										}
									}
								}
							}
						}
					}
				}
			}
		}
	}
	JOINT _no_name_1
	{
		OFFSET 0 0 0
		CHANNELS 3 Zrotation Xrotation Yrotation
		End Site
		{
			OFFSET 0 0 0
		}
	}
}
MOTION
Frames: 4
Frame Time: 0.050000
0 0 0 0 0 0 -88 -20 1.29502e-007 38.2331 21.7936 82.2956 -37.1083 29.4213 -73.6561 -1.58865 1.32401 -0.44075 -0.967067 0.516385 -1.66844 1.31782e-006 23.5 -8.47278e-006 3.45563 -4.10105 -99.7709 0.607402 -0.0530396 -9.98116 6.17324e-007 -2.63342e-008 -1.10366e-005 -2.26566 5.16281 -8.25226 -4.66417 6.11053 -26.8926 45.2244 16.6557 -35.4373 -22.3726 -70.7345 -20.4395 130.474 -14.4067 8.26033 -129.493 -63.1761 -1.2409 80.0793 -4.62133 16.2275 41.6893 1.75366 -58.1799 -8.39885 -6.49946 -13.5907 -4.08294 51.8188 28.0131 0.625356 25.7108 1.80571 56.9987 71.0425 -39.6674 3.22818 57.817 19.9353 -12.0119 -1.09299 -2.24108 36.0071 72.618 -27.0392 15.2501 51.5081 3.97515 -10.9545 2.53281 7.21052 12.3102 38.3268 -11.1017 22.8814 60.3696 -17.7682 -0.258683 -28.9074 12.2922 -5.64161 11.5999 3.06749 -2.49658 -5.32196 -1.12622 -86.4441 21.5927 38.1827 -2.9224 -29.457 -2.33649 -73.4398 -4.4476 -60.6534 -7.30449 8.6821 -29.7011 1.34673 2.62778 -6.6949 -11.3067 -0.20103 -11.3146 -33.8972 0.4931 -0.676314 -22.0681 1.55548 -2.44503 -19.6631 -0.284768 -9.0778 -35.8842 -0.0289587 -1.9967 -16.3808 0.747254 -1.96848 -18.255 -5.08214 0.168125 -41.6054 0.578086 -2.76576 -16.3228 1.00215 -2.56393 2.35636 -5.46906 17.8776 -26.9193 -1.42163 -0.907085 -41.0593 3.2958 -5.41512 0 0 0 
0 0 0 0 0 0 -86 -20 1.0569e-007 44.2338 20.8188 76.5352 -37.7839 23.2216 -66.698 -3.16834 2.65969 -0.844945 -1.91881 1.06064 -3.32813 1.31782e-006 23.5 -8.47278e-006 3.45563 -4.10105 -99.7709 0.607402 -0.0530396 -9.98116 6.17324e-007 -2.63342e-008 -1.10366e-005 -1.94373 5.11967 -7.0737 -4.31049 5.94047 -24.7139 45.8094 15.3696 -34.1179 -24.4793 -69.8103 -21.4875 130.091 -13.6563 8.71489 -129.493 -63.1761 -1.2409 80.0793 -4.62133 16.2275 41.6893 1.75366 -58.1799 -8.39885 -6.49946 -13.5907 -4.08294 51.8188 28.0131 0.625356 25.7108 1.80571 56.9987 71.0425 -39.6674 3.22818 57.817 19.9353 -12.0119 -1.09299 -2.24108 36.0071 72.618 -27.0392 15.2501 51.5081 3.97515 -10.9545 2.53281 7.21052 12.3102 38.3268 -11.1017 22.8814 60.3696 -17.7682 -0.258683 -28.9074 12.2922 -5.64161 11.5999 3.06749 -2.49658 -5.32196 -1.12622 -83.7573 23.3311 33.4335 -2.9224 -29.457 -2.33649 -74.6666 -5.51301 -60.5729 -7.38813 8.6206 -29.4561 1.24281 2.44973 -6.22547 -11.2544 -0.267329 -11.1449 -33.6453 0.478039 -0.64749 -21.5653 1.50991 -2.39656 -19.5119 -0.34702 -8.98123 -35.7159 -0.0405986 -1.97976 -16.0441 0.726722 -1.93937 -18.1615 -5.05247 0.107091 -41.2685 0.542094 -2.75781 -15.9847 0.980078 -2.55861 2.55586 -5.42142 17.5777 -26.5862 -1.48511 -0.897917 -40.7232 3.25131 -5.45275 0 0 0 
0 0 0 0 0 0 -84 -20 4.30864e-007 50.0536 19.2963 70.9593 -37.6448 16.9939 -60.0879 -4.74071 4.00598 -1.21263 -2.8546 1.63215 -4.97894 1.31782e-006 23.5 -8.47278e-006 3.45563 -4.10105 -99.7709 0.607402 -0.0530396 -9.98116 6.17324e-007 -2.63342e-008 -1.10366e-005 -1.62101 5.08313 -5.89499 -3.95066 5.78391 -22.5348 46.4213 14.0968 -32.7928 -26.45 -68.8741 -22.3964 129.704 -12.9089 9.17315 -129.493 -63.1761 -1.2409 80.0793 -4.62133 16.2275 41.6893 1.75366 -58.1799 -8.39885 -6.49946 -13.5907 -4.08294 51.8188 28.0131 0.625356 25.7108 1.80571 56.9987 71.0425 -39.6674 3.22818 57.817 19.9353 -12.0119 -1.09299 -2.24108 36.0071 72.618 -27.0392 15.2501 51.5081 3.97515 -10.9545 2.53281 7.21052 12.3102 38.3268 -11.1017 22.8814 60.3696 -17.7682 -0.258683 -28.9074 12.2922 -5.64161 11.5999 3.06749 -2.49658 -5.32196 -1.12622 -80.8869 24.8547 28.5392 -2.9224 -29.457 -2.33649 -75.8943 -6.5799 -60.5152 -7.4715 8.55875 -29.2112 1.14037 2.27083 -5.75642 -11.2019 -0.333472 -10.975 -33.3934 0.463106 -0.618599 -21.0625 1.46476 -2.34769 -19.3607 -0.409016 -8.88448 -35.5477 -0.0521853 -1.96278 -15.7073 0.706359 -1.91013 -18.068 -5.02289 0.0460084 -40.9316 0.506148 -2.74964 -15.6466 0.958039 -2.55316 2.75559 -5.37482 17.2777 -26.2531 -1.54854 -0.88838 -40.3871 3.20661 -5.49012 0 0 0 
0 0 0 0 0 0 -82 -20 1.01718e-006 55.6325 17.2608 65.6299 -36.7818 10.8213 -53.6375 -6.3074 5.36182 -1.54379 -3.77386 2.23031 -6.62075 1.31782e-006 23.5 -8.47278e-006 3.45563 -4.10105 -99.7709 0.607402 -0.0530396 -9.98116 6.17324e-007 -2.63342e-008 -1.10366e-005 -1.29761 5.05322 -4.71614 -3.58521 5.64107 -20.3553 47.06 12.8381 -31.4609 -28.3008 -67.9278 -23.1822 129.312 -12.1646 9.63526 -129.493 -63.1761 -1.2409 80.0793 -4.62133 16.2275 41.6893 1.75366 -58.1799 -8.39885 -6.49946 -13.5907 -4.08294 51.8188 28.0131 0.625356 25.7108 1.80571 56.9987 71.0425 -39.6674 3.22818 57.817 19.9353 -12.0119 -1.09299 -2.24108 36.0071 72.618 -27.0392 15.2501 51.5081 3.97515 -10.9545 2.53281 7.21052 12.3102 38.3268 -11.1017 22.8814 60.3696 -17.7682 -0.258683 -28.9074 12.2922 -5.64161 11.5999 3.06749 -2.49658 -5.32196 -1.12622 -77.8487 26.1459 23.5085 -2.9224 -29.457 -2.33649 -77.1238 -7.64777 -60.4804 -7.55458 8.49655 -28.9665 1.03941 2.0911 -5.28775 -11.1491 -0.39946 -10.8051 -33.1415 0.448296 -0.589643 -20.5596 1.42005 -2.29843 -19.2093 -0.470755 -8.78757 -35.3794 -0.0637224 -1.94576 -15.3706 0.686172 -1.88078 -17.9744 -4.99342 -0.015119 -40.5947 0.470251 -2.74126 -15.3085 0.936034 -2.54758 2.95555 -5.32926 16.9775 -25.92 -1.6119 -0.878474 -40.0511 3.16168 -5.52722 0 0 0 
